<svg width="16" height="15" viewBox="0 0 16 15" fill="none" xmlns="http://www.w3.org/2000/svg">
<path opacity="0.1" d="M7.08663 1.54906C7.43899 0.758573 8.56101 0.75857 8.91337 1.54906L10.2515 4.55105C10.3968 4.87709 10.7049 5.10093 11.0599 5.1384L14.3285 5.48338C15.1892 5.57422 15.5359 6.64132 14.893 7.22071L12.4514 9.42102C12.1863 9.65999 12.0686 10.0222 12.1426 10.3714L12.8246 13.5866C13.0042 14.4332 12.0964 15.0927 11.3467 14.6603L8.49962 13.0182C8.19041 12.8398 7.80959 12.8398 7.50038 13.0182L4.65327 14.6603C3.90357 15.0927 2.99584 14.4332 3.17541 13.5866L3.85736 10.3714C3.93142 10.0222 3.81374 9.65999 3.54857 9.42102L1.10702 7.22071C0.464104 6.64132 0.810824 5.57422 1.67151 5.48338L4.94008 5.1384C5.29507 5.10093 5.60316 4.87709 5.74849 4.55105L7.08663 1.54906Z" fill="#D9D9D9"/>
</svg>
